<svg width="52" height="52" viewBox="0 0 52 52" fill="none" xmlns="http://www.w3.org/2000/svg">
<path d="M35.6017 15.1003L32.8981 10.8286C32.3284 10.1644 31.5473 9.75 30.6719 9.75H21.3281C20.4527 9.75 19.6716 10.1644 19.1019 10.8286L16.3983 15.1003C15.8285 15.7655 15.0942 16.25 14.2188 16.25H8.125C7.26305 16.25 6.4364 16.5924 5.8269 17.2019C5.21741 17.8114 4.875 18.638 4.875 19.5V39C4.875 39.862 5.21741 40.6886 5.8269 41.2981C6.4364 41.9076 7.26305 42.25 8.125 42.25H43.875C44.737 42.25 45.5636 41.9076 46.1731 41.2981C46.7826 40.6886 47.125 39.862 47.125 39V19.5C47.125 18.638 46.7826 17.8114 46.1731 17.2019C45.5636 16.5924 44.737 16.25 43.875 16.25H37.8828C37.0043 16.25 36.1715 15.7655 35.6017 15.1003Z" stroke="#596874" stroke-width="3.25" stroke-linecap="round" stroke-linejoin="round"/>
<path d="M26 35.75C30.4873 35.75 34.125 32.1123 34.125 27.625C34.125 23.1377 30.4873 19.5 26 19.5C21.5127 19.5 17.875 23.1377 17.875 27.625C17.875 32.1123 21.5127 35.75 26 35.75Z" stroke="#596874" stroke-width="3.25" stroke-miterlimit="10"/>
<path d="M12.5938 16.0469V13.8125H10.1562V16.0469" stroke="#596874" stroke-width="3.25" stroke-linecap="round" stroke-linejoin="round"/>
</svg>
