<svg width="24" height="24" viewBox="0 0 24 24" fill="none" xmlns="http://www.w3.org/2000/svg">
<path fill-rule="evenodd" clip-rule="evenodd" d="M23.6891 20.1252L18.4166 14.7847C19.2746 13.2863 19.7223 11.6201 19.7223 9.94152C19.7223 4.49531 15.2953 0.0625 9.86114 0.0625C4.42694 0.0625 0 4.49531 0 9.94152C0 15.3877 4.42694 19.8205 9.86114 19.8205C11.5959 19.8205 13.3119 19.3418 14.8415 18.4279L20.0891 23.7498C20.2073 23.8679 20.3751 23.9425 20.543 23.9425C20.7109 23.9425 20.8788 23.8741 20.9969 23.7498L23.6891 21.0267C23.9378 20.7718 23.9378 20.3739 23.6891 20.1252V20.1252ZM9.86098 3.91079C13.1812 3.91079 15.8796 6.61524 15.8796 9.9414C15.8796 13.2676 13.1812 15.972 9.86098 15.972C6.54077 15.972 3.84232 13.2676 3.84232 9.9414C3.84232 6.61524 6.54077 3.91079 9.86098 3.91079V3.91079Z" fill="#021C40"/>
<mask id="mask0_467_687" style="mask-type:luminance" maskUnits="userSpaceOnUse" x="0" y="0" width="24" height="24">
<path fill-rule="evenodd" clip-rule="evenodd" d="M23.6891 20.1252L18.4166 14.7847C19.2746 13.2863 19.7223 11.6201 19.7223 9.94152C19.7223 4.49531 15.2953 0.0625 9.86114 0.0625C4.42694 0.0625 0 4.49531 0 9.94152C0 15.3877 4.42694 19.8205 9.86114 19.8205C11.5959 19.8205 13.3119 19.3418 14.8415 18.4279L20.0891 23.7498C20.2073 23.8679 20.3751 23.9425 20.543 23.9425C20.7109 23.9425 20.8788 23.8741 20.9969 23.7498L23.6891 21.0267C23.9378 20.7718 23.9378 20.3739 23.6891 20.1252V20.1252ZM9.86098 3.91079C13.1812 3.91079 15.8796 6.61524 15.8796 9.9414C15.8796 13.2676 13.1812 15.972 9.86098 15.972C6.54077 15.972 3.84232 13.2676 3.84232 9.9414C3.84232 6.61524 6.54077 3.91079 9.86098 3.91079V3.91079Z" fill="white"/>
</mask>
<g mask="url(#mask0_467_687)">
<rect width="24" height="24" fill="#021C40"/>
</g>
</svg>
