<svg width="24" height="24" viewBox="0 0 24 24" fill="none" xmlns="http://www.w3.org/2000/svg">
<path fill-rule="evenodd" clip-rule="evenodd" d="M12 0C5.37257 0 0 5.37257 0 12C0 18.6274 5.37257 24 12 24C18.6274 24 24 18.6274 24 12C24 5.37257 18.6274 0 12 0V0ZM6.05677 13.9123C5.97368 14.1776 5.7557 14.3797 5.48393 14.4805C5.30404 14.5473 5.11879 14.5756 4.93557 14.5308C4.46061 14.4137 4.19007 13.9465 4.33263 13.4892C4.6059 12.6117 5.09441 11.8823 6.14345 11.4929C7.19248 11.1036 8.03265 11.3388 8.81495 11.8224C9.2229 12.0746 9.35222 12.5734 9.0407 13.0076C8.93093 13.1605 8.77182 13.2603 8.59198 13.327C8.32097 13.4275 8.02498 13.4169 7.79029 13.2715C7.53432 13.1131 7.22013 12.9219 6.73991 13.1001C6.25729 13.2792 6.14516 13.6272 6.05677 13.9123V13.9123ZM16.7761 18.7207C16.6266 18.8249 16.4556 18.875 16.2862 18.875C16.0155 18.875 15.7492 18.7471 15.5826 18.5083C15.5732 18.4949 14.5713 17.1428 11.9998 17.1428C9.42948 17.1428 8.42641 18.4949 8.41703 18.5083C8.25037 18.7471 7.98402 18.875 7.71337 18.875C7.54403 18.875 7.37298 18.8249 7.22357 18.7207C6.83539 18.4497 6.7403 17.9155 7.01127 17.5272C7.07052 17.4423 8.50371 15.4285 11.9998 15.4285C15.482 15.4285 16.9291 17.4423 16.9884 17.5272C17.2593 17.9155 17.1642 18.4497 16.7761 18.7207V18.7207ZM19.0729 14.5308C18.8897 14.5756 18.7044 14.5473 18.5246 14.4805C18.2528 14.3796 18.0348 14.1776 17.9517 13.9123C17.8634 13.6272 17.7513 13.2792 17.2686 13.1001C16.7884 12.9219 16.4742 13.1131 16.2182 13.2715C15.9835 13.4169 15.6875 13.4275 15.4165 13.327C15.2367 13.2603 15.0776 13.1605 14.9678 13.0076C14.6563 12.5734 14.7856 12.0746 15.1935 11.8224C15.9759 11.3388 16.816 11.1036 17.865 11.4929C18.9141 11.8823 19.4027 12.6117 19.6759 13.4892C19.8184 13.9465 19.5479 14.4138 19.0729 14.5308V14.5308Z" fill="white"/>
<mask id="mask0_467_849" style="mask-type:luminance" maskUnits="userSpaceOnUse" x="0" y="0" width="24" height="24">
<path fill-rule="evenodd" clip-rule="evenodd" d="M12 0C5.37257 0 0 5.37257 0 12C0 18.6274 5.37257 24 12 24C18.6274 24 24 18.6274 24 12C24 5.37257 18.6274 0 12 0V0ZM6.05677 13.9123C5.97368 14.1776 5.7557 14.3797 5.48393 14.4805C5.30404 14.5473 5.11879 14.5756 4.93557 14.5308C4.46061 14.4137 4.19007 13.9465 4.33263 13.4892C4.6059 12.6117 5.09441 11.8823 6.14345 11.4929C7.19248 11.1036 8.03265 11.3388 8.81495 11.8224C9.2229 12.0746 9.35222 12.5734 9.0407 13.0076C8.93093 13.1605 8.77182 13.2603 8.59198 13.327C8.32097 13.4275 8.02498 13.4169 7.79029 13.2715C7.53432 13.1131 7.22013 12.9219 6.73991 13.1001C6.25729 13.2792 6.14516 13.6272 6.05677 13.9123V13.9123ZM16.7761 18.7207C16.6266 18.8249 16.4556 18.875 16.2862 18.875C16.0155 18.875 15.7492 18.7471 15.5826 18.5083C15.5732 18.4949 14.5713 17.1428 11.9998 17.1428C9.42948 17.1428 8.42641 18.4949 8.41703 18.5083C8.25037 18.7471 7.98402 18.875 7.71337 18.875C7.54403 18.875 7.37298 18.8249 7.22357 18.7207C6.83539 18.4497 6.7403 17.9155 7.01127 17.5272C7.07052 17.4423 8.50371 15.4285 11.9998 15.4285C15.482 15.4285 16.9291 17.4423 16.9884 17.5272C17.2593 17.9155 17.1642 18.4497 16.7761 18.7207V18.7207ZM19.0729 14.5308C18.8897 14.5756 18.7044 14.5473 18.5246 14.4805C18.2528 14.3796 18.0348 14.1776 17.9517 13.9123C17.8634 13.6272 17.7513 13.2792 17.2686 13.1001C16.7884 12.9219 16.4742 13.1131 16.2182 13.2715C15.9835 13.4169 15.6875 13.4275 15.4165 13.327C15.2367 13.2603 15.0776 13.1605 14.9678 13.0076C14.6563 12.5734 14.7856 12.0746 15.1935 11.8224C15.9759 11.3388 16.816 11.1036 17.865 11.4929C18.9141 11.8823 19.4027 12.6117 19.6759 13.4892C19.8184 13.9465 19.5479 14.4138 19.0729 14.5308V14.5308Z" fill="white"/>
</mask>
<g mask="url(#mask0_467_849)">
<rect width="24" height="24" fill="white"/>
</g>
</svg>
