<svg width="25" height="24" viewBox="0 0 25 24" fill="none" xmlns="http://www.w3.org/2000/svg">
<path fill-rule="evenodd" clip-rule="evenodd" d="M19.5429 13.7995C19.4225 13.7366 19.2871 13.7033 19.1514 13.7033C18.8323 13.7033 18.5429 13.8794 18.3958 14.1634C17.418 16.0569 15.1038 17.1428 12.5001 17.1428C9.83581 17.1428 7.47299 16.0412 6.62029 14.1965C6.4816 13.8971 6.17865 13.7037 5.84849 13.7037C5.7256 13.7037 5.60629 13.7297 5.49181 13.7821C5.0672 13.9789 4.88126 14.4848 5.07749 14.9101C6.20281 17.3445 9.18572 18.857 12.5001 18.857C15.7326 18.857 18.6396 17.3956 19.9059 14.9434C20.1207 14.5276 19.9571 14.0141 19.5429 13.7995V13.7995ZM20.8995 10.67C20.3381 9.94241 19.6262 9.4285 18.5073 9.4285C17.3883 9.4285 16.6825 9.94134 16.1174 10.6669C15.8226 11.0452 15.875 11.558 16.3181 11.8566C16.4742 11.9617 16.6581 11.9999 16.8499 11.9999C17.1389 11.9999 17.4128 11.8869 17.5822 11.6689C17.7671 11.4313 17.9951 11.1428 18.5073 11.1428C19.0221 11.1428 19.2483 11.43 19.4303 11.6666C19.6006 11.8864 19.8753 11.9999 20.1652 11.9999C20.357 11.9999 20.5406 11.962 20.6967 11.8562C21.1012 11.5813 21.1923 11.049 20.8995 10.67V10.67ZM8.89949 10.67C8.33806 9.94241 7.62621 9.4285 6.50726 9.4285C5.38831 9.4285 4.68245 9.94134 4.11733 10.6669C3.82263 11.0452 3.87492 11.558 4.31806 11.8566C4.47417 11.9617 4.65803 11.9999 4.84987 11.9999C5.13888 11.9999 5.41274 11.8869 5.58213 11.6689C5.76701 11.4313 5.99506 11.1428 6.50726 11.1428C7.02208 11.1428 7.24826 11.43 7.43029 11.6666C7.60049 11.8864 7.87515 11.9999 8.16508 11.9999C8.35697 11.9999 8.54046 11.962 8.69662 11.8562C9.10124 11.5813 9.19226 11.049 8.89949 10.67V10.67ZM12.5 0C5.87257 0 0.5 5.37257 0.5 12C0.5 18.6274 5.87257 24 12.5 24C19.1274 24 24.5 18.6274 24.5 12C24.5 5.37257 19.1274 0 12.5 0V0ZM19.7731 19.2731C17.8303 21.2158 15.2474 22.2857 12.5 22.2857C9.75255 22.2857 7.1696 21.2158 5.22683 19.2731C3.28417 17.3303 2.21425 14.7474 2.21425 12C2.21425 9.25255 3.28417 6.66961 5.22683 4.72684C7.1696 2.78418 9.75255 1.71425 12.5 1.71425C15.2474 1.71425 17.8303 2.78418 19.7731 4.72684C21.7157 6.66961 22.7857 9.25255 22.7857 12C22.7857 14.7474 21.7157 17.3303 19.7731 19.2731V19.2731Z" fill="white"/>
<mask id="mask0_467_832" style="mask-type:luminance" maskUnits="userSpaceOnUse" x="0" y="0" width="25" height="24">
<path fill-rule="evenodd" clip-rule="evenodd" d="M19.5429 13.7995C19.4225 13.7366 19.2871 13.7033 19.1514 13.7033C18.8323 13.7033 18.5429 13.8794 18.3958 14.1634C17.418 16.0569 15.1038 17.1428 12.5001 17.1428C9.83581 17.1428 7.47299 16.0412 6.62029 14.1965C6.4816 13.8971 6.17865 13.7037 5.84849 13.7037C5.7256 13.7037 5.60629 13.7297 5.49181 13.7821C5.0672 13.9789 4.88126 14.4848 5.07749 14.9101C6.20281 17.3445 9.18572 18.857 12.5001 18.857C15.7326 18.857 18.6396 17.3956 19.9059 14.9434C20.1207 14.5276 19.9571 14.0141 19.5429 13.7995V13.7995ZM20.8995 10.67C20.3381 9.94241 19.6262 9.4285 18.5073 9.4285C17.3883 9.4285 16.6825 9.94134 16.1174 10.6669C15.8226 11.0452 15.875 11.558 16.3181 11.8566C16.4742 11.9617 16.6581 11.9999 16.8499 11.9999C17.1389 11.9999 17.4128 11.8869 17.5822 11.6689C17.7671 11.4313 17.9951 11.1428 18.5073 11.1428C19.0221 11.1428 19.2483 11.43 19.4303 11.6666C19.6006 11.8864 19.8753 11.9999 20.1652 11.9999C20.357 11.9999 20.5406 11.962 20.6967 11.8562C21.1012 11.5813 21.1923 11.049 20.8995 10.67V10.67ZM8.89949 10.67C8.33806 9.94241 7.62621 9.4285 6.50726 9.4285C5.38831 9.4285 4.68245 9.94134 4.11733 10.6669C3.82263 11.0452 3.87492 11.558 4.31806 11.8566C4.47417 11.9617 4.65803 11.9999 4.84987 11.9999C5.13888 11.9999 5.41274 11.8869 5.58213 11.6689C5.76701 11.4313 5.99506 11.1428 6.50726 11.1428C7.02208 11.1428 7.24826 11.43 7.43029 11.6666C7.60049 11.8864 7.87515 11.9999 8.16508 11.9999C8.35697 11.9999 8.54046 11.962 8.69662 11.8562C9.10124 11.5813 9.19226 11.049 8.89949 10.67V10.67ZM12.5 0C5.87257 0 0.5 5.37257 0.5 12C0.5 18.6274 5.87257 24 12.5 24C19.1274 24 24.5 18.6274 24.5 12C24.5 5.37257 19.1274 0 12.5 0V0ZM19.7731 19.2731C17.8303 21.2158 15.2474 22.2857 12.5 22.2857C9.75255 22.2857 7.1696 21.2158 5.22683 19.2731C3.28417 17.3303 2.21425 14.7474 2.21425 12C2.21425 9.25255 3.28417 6.66961 5.22683 4.72684C7.1696 2.78418 9.75255 1.71425 12.5 1.71425C15.2474 1.71425 17.8303 2.78418 19.7731 4.72684C21.7157 6.66961 22.7857 9.25255 22.7857 12C22.7857 14.7474 21.7157 17.3303 19.7731 19.2731V19.2731Z" fill="white"/>
</mask>
<g mask="url(#mask0_467_832)">
<rect x="0.5" width="24" height="24" fill="white"/>
</g>
</svg>
